<?xml version="1.0" encoding="UTF-8"?>
<svg id="Layer_1" data-name="Layer 1" xmlns="http://www.w3.org/2000/svg" version="1.1" viewBox="0 0 400 400">
  <path style="fill:#a89968; stroke-width:0px;" d="M318.51,106.13c-4.65,0-8.42,3.79-8.42,8.44v122.35c0,35.93-29.13,65.05-65.05,65.05h-125.2c13.38,22.48,37.56,36.29,63.72,36.4h133.16c41.16,0,74.53-33.35,74.54-74.5V127.33l8.75-4.62v-16.57h-81.49ZM182.05,106.13h-81.46v16.59l8.75,4.62v114.7h72.71c4.66,0,8.44-3.78,8.44-8.44h0v-119.05c0-4.65-3.79-8.42-8.44-8.42"/>
  <path style="fill:#ba0c2f;" d="M236.05,61.62H0v16.59l12.12,6.4v180.73l-12.12,6.42v16.59h236.05c31.09,0,56.3-25.21,56.31-56.31v-114.12c0-31.09-25.21-56.3-56.31-56.31M210.57,236.07c0,11.13-9.02,20.15-20.15,20.15h-101.55V91.87h101.49c11.13-.04,20.18,8.95,20.22,20.08,0,.02,0,.03,0,.05v124.07Z"/>
</svg>